<?xml version="1.0" encoding="UTF-8" standalone="no"?>
<svg
   width="128px"
   height="128px"
   viewBox="0 0 128 128"
   version="1.1"
   id="svg3"
   sodipodi:docname="ultralytics-plain.svg"
   inkscape:version="1.4.2 (f4327f4, 2025-05-13)"
   xmlns:inkscape="http://www.inkscape.org/namespaces/inkscape"
   xmlns:sodipodi="http://sodipodi.sourceforge.net/DTD/sodipodi-0.dtd"
   xmlns="http://www.w3.org/2000/svg"
   xmlns:svg="http://www.w3.org/2000/svg">
  <defs
     id="defs3" />
  <sodipodi:namedview
     id="namedview3"
     pagecolor="#505050"
     bordercolor="#eeeeee"
     borderopacity="1"
     inkscape:showpageshadow="0"
     inkscape:pageopacity="0"
     inkscape:pagecheckerboard="0"
     inkscape:deskcolor="#505050"
     inkscape:zoom="5.046875"
     inkscape:cx="64"
     inkscape:cy="32.297214"
     inkscape:window-width="1536"
     inkscape:window-height="890"
     inkscape:window-x="120"
     inkscape:window-y="1433"
     inkscape:window-maximized="1"
     inkscape:current-layer="svg3" />
  <g
     id="surface1"
     transform="matrix(1.0823294,0,0,1.0823294,-5.4947059,-2.4808796)">
    <path
       style="fill:#000000;fill-opacity:1;fill-rule:nonzero;stroke:none"
       d="M 89.050781,2.636719 C 84.914062,3 80.085938,4.648438 76.375,6.949219 72.960938,9.050781 69.699219,12.375 67.460938,16 c -2.125,3.460938 -3.449219,7.726562 -3.898438,12.550781 -0.574219,6.125 -1.414062,9.472657 -3.363281,13.511719 C 58.75,45.0625 57,47.488281 54.539062,49.886719 52.898438,51.5 51.949219,52.273438 50.238281,53.398438 c -4.152343,2.75 -8.476562,4.414062 -13.488281,5.1875 -2.039062,0.3125 -6.613281,0.300781 -8.6875,-0.01172 C 23.023438,57.800781 17.824219,55.8125 13.773438,53.113281 13.273438,52.773438 12.835938,52.5 12.8125,52.5 c -0.300781,0 2.460938,3.949219 4.210938,6.039062 C 21.9375,64.398438 27.949219,69.4375 34.3125,73.011719 43.875,78.375 53.6875,81 64.175781,81 c 5.300781,0 9.5625,-0.550781 14.660157,-1.875 10.113281,-2.648438 19.976562,-8.4375 27.476562,-16.136719 4.52344,-4.652343 7.72656,-9.0625 10.32422,-14.261719 2.78906,-5.550781 4.15234,-10.738281 4.32422,-16.414062 0.23828,-7.726562 -2.02344,-14.398438 -6.76172,-19.898438 C 108.27344,5.523438 98.636719,1.773438 89.050781,2.636719 Z m 0,0"
       id="path1" />
    <path
       style="fill:#000000;fill-opacity:1;fill-rule:nonzero;stroke:none"
       d="M 28.75,3.699219 C 23.523438,4.5 18.523438,7.011719 14.761719,10.738281 9.039062,16.414062 6.625,24.398438 8.125,32.710938 c 0.425781,2.375 1.210938,4.652343 2.300781,6.726562 2.5,4.738281 6.3125,8.460938 11.011719,10.761719 C 25.050781,51.960938 28.476562,52.75 32.511719,52.75 37.023438,52.75 40.9375,51.710938 44.6875,49.523438 52.789062,44.8125 57.574219,36.335938 57.199219,27.375 57,22.488281 55.6875,18.300781 53.148438,14.5 49.335938,8.800781 42.710938,4.6875 35.738281,3.6875 34.074219,3.449219 30.351562,3.460938 28.75,3.699219 Z m 0,0"
       id="path2" />
    <path
       style="fill:#000000;fill-opacity:1;fill-rule:nonzero;stroke:none"
       d="m 35.289062,85.851562 c 0.04688,10.046876 0.02344,9.734376 0.835938,13.085938 1.863281,7.8125 7.335938,14.51172 15,18.375 5.050781,2.55078 11.261719,3.55078 17.011719,2.73828 7.886719,-1.10156 15.425781,-5.88672 20.027343,-12.71484 1.585938,-2.35938 3.171876,-6.0625 3.773438,-8.77344 0.585938,-2.710938 0.601562,-2.925781 0.648438,-12.601562 C 92.625,80.3125 92.601562,76.75 92.523438,76.75 c -0.0625,0 -1.035157,0.449219 -2.160157,0.988281 -3.101562,1.5 -5.214843,2.324219 -8.402343,3.273438 -4.421876,1.324219 -8.671876,2.125 -13.359376,2.5 -2.464843,0.1875 -9.226562,0.08984 -11.414062,-0.1875 -7.335938,-0.925781 -13.136719,-2.585938 -19.851562,-5.710938 l -2.097657,-0.976562 z m 0,0"
       id="path3" />
  </g>
</svg>
